<?xml version="1.0" encoding="UTF-8"?><svg id="Livello_2" xmlns="http://www.w3.org/2000/svg" viewBox="0 0 544.93 449.56"><defs><style>.cls-1{fill-rule:evenodd;}</style></defs><g id="Layer_1"><g><path class="cls-1" d="m237.85,449.56h-113.7c-33.16,0-63.56-13.27-85.97-35.15h199.68v35.15h0Zm-214.67-52.75c-6.02-8.54-11.03-17.91-14.83-27.92h229.5v27.92H23.18Zm-20.09-45.54C1.06,342.13-.01,332.55,0,322.7h237.85v28.57H3.09Zm-1.93-46.18c2.73-21.01,10.32-43.03,23.91-65.12L174.3,44.38C206.69,9.73,232.61,1.56,258.55,0v146.26l-119.42,158.83H1.16Z"/><path class="cls-1" d="m307.08,449.56h113.71c33.16,0,63.56-13.27,85.97-35.15h-199.68v35.15h0Zm214.67-52.75c6.02-8.54,11.03-17.91,14.83-27.92h-229.5v27.92h214.67Zm20.09-45.54c2.03-9.14,3.1-18.72,3.09-28.57h-237.85v28.57h234.76Zm1.93-46.18c-2.73-21.01-10.33-43.03-23.91-65.12L370.62,44.38C338.24,9.73,312.32,1.56,286.37,0v146.26l119.42,158.83h137.97Z"/></g></g></svg>