<?xml version="1.0" encoding="UTF-8"?><svg id="Livello_2" xmlns="http://www.w3.org/2000/svg" viewBox="0 0 1978.94 297.03"><defs><style>.cls-1,.cls-2{fill:#fff;}.cls-2{fill-rule:evenodd;}</style></defs><g id="Layer_1"><g><g><rect class="cls-1" x="408.16" y="204.86" width="1570.78" height="7"/><g><path class="cls-1" d="m408.17,162.69V16.81h119.5v34.95h-71.48v19.42h60.44v33.47h-60.44v22.59h74.42v35.45h-122.44Z"/><path class="cls-1" d="m553.06,162.69V16.81h45.59l41.93,67.84c1.29,1.91,2.65,4.62,4.1,8.12,1.47,3.5,3.01,7.73,4.65,12.68-.42-2.58-.73-5.41-.93-8.52-.2-3.09-.31-6.86-.31-11.29V16.81h45.81v145.88h-45.81l-41.93-67.34c-1.28-1.98-2.69-4.79-4.21-8.42-1.52-3.63-3.08-7.8-4.62-12.49.47,2.58.82,5.27,1.01,8.09.2,2.79.31,6.74.31,11.83v68.33h-45.59Z"/><path class="cls-1" d="m833.59,162.69l-2.34-12.58c-5.42,5.61-11.95,9.78-19.6,12.52-7.66,2.75-16.54,4.12-26.7,4.12-21.39,0-38.24-6.86-50.56-20.55-12.33-13.71-18.49-32.48-18.49-56.31s6.89-43.27,20.62-56.69c13.74-13.44,32.99-20.17,57.77-20.17,19.49,0,35.2,4.72,47.16,14.17,11.93,9.44,19.04,22.75,21.26,39.91h-45.59c-1.81-5.8-4.79-10.22-8.88-13.27-4.08-3.04-9.14-4.56-15.16-4.56-9.61,0-16.81,3.61-21.58,10.81-4.79,7.18-7.16,17.92-7.16,32.18,0,13.21,2.42,23.09,7.2,29.61,4.82,6.54,12.13,9.82,21.95,9.82,7.03,0,13.02-1.61,17.92-4.81,4.9-3.2,7.94-7.51,9.1-12.93h-21.63v-31.19h65.68v79.92h-30.96Z"/><path class="cls-1" d="m892.57,162.69V16.81h48.94v145.88h-48.94Z"/><path class="cls-1" d="m970.75,162.69V16.81h45.59l41.95,67.84c1.26,1.91,2.65,4.62,4.09,8.12,1.45,3.5,3.01,7.73,4.62,12.68-.41-2.58-.71-5.41-.92-8.52-.18-3.09-.28-6.86-.28-11.29V16.81h45.78v145.88h-45.78l-41.93-67.34c-1.31-1.98-2.7-4.79-4.22-8.42-1.53-3.63-3.07-7.8-4.63-12.49.47,2.58.82,5.27,1.02,8.09.22,2.79.31,6.74.31,11.83v68.33h-45.59Z"/><path class="cls-1" d="m1139.98,162.69V16.81h119.52v34.95h-71.49v19.42h60.44v33.47h-60.44v22.59h74.43v35.45h-122.46Z"/><path class="cls-1" d="m1284.88,162.69V16.81h119.51v34.95h-71.49v19.42h60.44v33.47h-60.44v22.59h74.42v35.45h-122.44Z"/><path class="cls-1" d="m1429.77,162.69V16.81h71.58c22.39,0,38.38,3.27,47.96,9.8,9.58,6.54,14.36,17.26,14.36,32.2,0,8.91-1.96,16.31-5.87,22.18-3.92,5.87-9.98,10.52-18.18,13.96,8.33,1.71,14.39,5.11,18.18,10.15,3.78,5.06,5.82,12.47,6.09,22.24l.8,20.31c0,.12.04.3.11.5.22,5.8,1.64,8.84,4.29,9.11v5.45h-48.46c-.87-3.5-1.52-6.54-1.96-9.16-.46-2.6-.67-4.63-.67-6.08v-14.56c0-7.54-1.52-12.83-4.57-15.9-3.05-3.06-8.32-4.6-15.83-4.6h-20.42v50.31h-47.4Zm47.4-83.19h21.83c7.65,0,12.93-1.01,15.85-3.02,2.91-2.02,4.36-5.52,4.36-10.55s-1.45-8.74-4.36-10.75c-2.92-2-8.6-3.01-17.06-3.01h-20.62v27.33Z"/><path class="cls-1" d="m1589.28,162.69V16.81h48.92v145.88h-48.92Z"/><path class="cls-1" d="m1667.44,162.69V16.81h45.59l41.95,67.84c1.28,1.91,2.66,4.62,4.11,8.12,1.45,3.5,2.99,7.73,4.6,12.68-.4-2.58-.68-5.41-.9-8.52-.2-3.09-.29-6.86-.29-11.29V16.81h45.77v145.88h-45.77l-41.94-67.34c-1.29-1.98-2.71-4.79-4.23-8.42-1.52-3.63-3.05-7.8-4.61-12.49.47,2.58.8,5.27,1.02,8.09.2,2.79.29,6.74.29,11.83v68.33h-45.59Z"/><path class="cls-1" d="m1947.97,162.69l-2.32-12.58c-5.44,5.61-11.97,9.78-19.62,12.52-7.63,2.75-16.53,4.12-26.69,4.12-21.4,0-38.23-6.86-50.56-20.55-12.33-13.71-18.48-32.48-18.48-56.31s6.87-43.27,20.61-56.69c13.75-13.44,32.99-20.17,57.78-20.17,19.48,0,35.2,4.72,47.15,14.17,11.93,9.44,19.04,22.75,21.27,39.91h-45.59c-1.83-5.8-4.79-10.22-8.89-13.27-4.08-3.04-9.16-4.56-15.18-4.56-9.61,0-16.79,3.61-21.58,10.81-4.77,7.18-7.15,17.92-7.15,32.18,0,13.21,2.39,23.09,7.2,29.61,4.8,6.54,12.13,9.82,21.92,9.82,7.03,0,13.02-1.61,17.92-4.81,4.93-3.2,7.94-7.51,9.1-12.93h-21.62v-31.19h65.68v79.92h-30.97Z"/></g><g><path class="cls-1" d="m424.2,296.11v-38.37h-13.8v-8.85h37.66v8.85h-13.73v38.37h-10.12Z"/><path class="cls-1" d="m490.8,296.11v-19.82h-22.3v19.82h-10.05v-47.21h10.05v18.55h22.3v-18.55h10.12v47.21h-10.12Z"/><path class="cls-1" d="m514.16,296.11v-47.21h33.41v8.64h-23.36v10.26h22.86v8.64h-22.86v10.97h23.36v8.71h-33.41Z"/><path class="cls-1" d="m581.47,296.11v-47.21h18.62c14.79,0,25.06,9.41,25.06,23.64s-10.26,23.57-25.06,23.57h-18.62Zm10.05-8.85h8.56c9.34,0,14.79-6.72,14.79-14.72s-5.1-14.79-14.79-14.79h-8.56v29.52Z"/><path class="cls-1" d="m636.25,296.11v-47.21h10.05v47.21h-10.05Z"/><path class="cls-1" d="m682.47,248.12c9.77,0,15.93,4.74,19.54,10.33l-8.35,4.53c-2.19-3.33-6.23-5.95-11.18-5.95-8.56,0-14.79,6.58-14.79,15.5s6.23,15.5,14.79,15.5c4.32,0,8.14-1.77,10.19-3.61v-5.73h-12.6v-8.64h22.51v18.05c-4.81,5.38-11.54,8.92-20.1,8.92-13.8,0-25.13-9.63-25.13-24.49s11.33-24.42,25.13-24.42Z"/><path class="cls-1" d="m714.53,296.11v-47.21h10.05v47.21h-10.05Z"/><path class="cls-1" d="m748.78,296.11v-38.37h-13.8v-8.85h37.66v8.85h-13.73v38.37h-10.12Z"/><path class="cls-1" d="m811.57,296.11l-2.97-8.14h-21.09l-2.97,8.14h-11.04l18.26-47.21h12.6l18.19,47.21h-10.97Zm-13.52-38.51l-7.86,21.66h15.64l-7.79-21.66Z"/><path class="cls-1" d="m830.89,296.11v-47.21h10.05v38.37h19.96v8.85h-30.01Z"/><path class="cls-1" d="m904.85,296.11v-38.37h-13.8v-8.85h37.66v8.85h-13.73v38.37h-10.12Z"/><path class="cls-1" d="m965.79,296.11l-9.27-16.92h-7.36v16.92h-10.05v-47.21h22.08c9.84,0,15.86,6.44,15.86,15.22s-5.24,12.81-10.33,14.02l10.62,17.98h-11.54Zm-6.09-38.58h-10.55v13.02h10.55c4.03,0,7.08-2.55,7.08-6.51s-3.04-6.51-7.08-6.51Z"/><path class="cls-1" d="m1021.64,296.11l-2.97-8.14h-21.09l-2.97,8.14h-11.04l18.26-47.21h12.6l18.19,47.21h-10.97Zm-13.52-38.51l-7.86,21.66h15.64l-7.79-21.66Z"/><path class="cls-1" d="m1073.52,296.11l-22.51-31.71v31.71h-10.05v-47.21h10.33l21.87,30.58v-30.58h10.05v47.21h-9.7Z"/><path class="cls-1" d="m1098.78,281.81c3.33,3.47,8.49,6.37,15.01,6.37,5.52,0,8.21-2.62,8.21-5.31,0-3.54-4.11-4.74-9.56-6.02-7.72-1.77-17.63-3.89-17.63-14.44,0-7.86,6.8-14.23,17.91-14.23,7.5,0,13.73,2.27,18.4,6.58l-5.59,7.36c-3.82-3.54-8.92-5.17-13.52-5.17s-6.94,1.98-6.94,4.81c0,3.19,3.96,4.18,9.41,5.45,7.79,1.77,17.7,4.11,17.7,14.58,0,8.64-6.16,15.15-18.9,15.15-9.06,0-15.57-3.04-20.03-7.5l5.52-7.64Z"/><path class="cls-1" d="m1142.95,296.11v-47.21h33.41v8.64h-23.36v10.26h22.86v8.64h-22.86v19.68h-10.05Z"/><path class="cls-1" d="m1209.69,248.12c14.3,0,24.7,10.19,24.7,24.42s-10.41,24.42-24.7,24.42-24.63-10.19-24.63-24.42,10.41-24.42,24.63-24.42Zm0,8.92c-8.71,0-14.3,6.65-14.3,15.5s5.59,15.5,14.3,15.5,14.37-6.72,14.37-15.5-5.66-15.5-14.37-15.5Z"/><path class="cls-1" d="m1272.12,296.11l-9.27-16.92h-7.36v16.92h-10.05v-47.21h22.08c9.84,0,15.86,6.44,15.86,15.22s-5.24,12.81-10.33,14.02l10.62,17.98h-11.54Zm-6.09-38.58h-10.55v13.02h10.55c4.03,0,7.08-2.55,7.08-6.51s-3.04-6.51-7.08-6.51Z"/><path class="cls-1" d="m1335.96,296.11v-33.98l-13.31,33.98h-4.39l-13.31-33.98v33.98h-10.05v-47.21h14.09l11.47,29.45,11.47-29.45h14.16v47.21h-10.12Z"/><path class="cls-1" d="m1392.44,296.11l-2.97-8.14h-21.09l-2.97,8.14h-11.04l18.26-47.21h12.6l18.19,47.21h-10.97Zm-13.52-38.51l-7.86,21.66h15.64l-7.79-21.66Z"/><path class="cls-1" d="m1418.13,296.11v-38.37h-13.8v-8.85h37.66v8.85h-13.73v38.37h-10.12Z"/><path class="cls-1" d="m1452.39,296.11v-47.21h10.05v47.21h-10.05Z"/><path class="cls-1" d="m1498.11,248.12c14.3,0,24.7,10.19,24.7,24.42s-10.41,24.42-24.7,24.42-24.63-10.19-24.63-24.42,10.41-24.42,24.63-24.42Zm0,8.92c-8.71,0-14.3,6.65-14.3,15.5s5.59,15.5,14.3,15.5,14.37-6.72,14.37-15.5-5.66-15.5-14.37-15.5Z"/><path class="cls-1" d="m1566.42,296.11l-22.51-31.71v31.71h-10.05v-47.21h10.33l21.87,30.58v-30.58h10.05v47.21h-9.7Z"/><path class="cls-1" d="m1609.23,272.54c0-14.51,10.97-24.42,24.77-24.42,10.76,0,16.78,5.66,20.1,11.54l-8.64,4.25c-1.98-3.82-6.23-6.87-11.47-6.87-8.21,0-14.44,6.58-14.44,15.5s6.23,15.5,14.44,15.5c5.24,0,9.49-2.97,11.47-6.87l8.64,4.18c-3.4,5.88-9.34,11.61-20.1,11.61-13.8,0-24.77-9.91-24.77-24.42Z"/><path class="cls-1" d="m1686.45,248.12c14.3,0,24.7,10.19,24.7,24.42s-10.41,24.42-24.7,24.42-24.63-10.19-24.63-24.42,10.41-24.42,24.63-24.42Zm0,8.92c-8.71,0-14.3,6.65-14.3,15.5s5.59,15.5,14.3,15.5,14.37-6.72,14.37-15.5-5.66-15.5-14.37-15.5Z"/><path class="cls-1" d="m1763.25,296.11v-33.98l-13.31,33.98h-4.39l-13.31-33.98v33.98h-10.05v-47.21h14.09l11.47,29.45,11.47-29.45h14.16v47.21h-10.12Z"/><path class="cls-1" d="m1786.68,296.11v-47.21h22.08c10.26,0,15.86,6.94,15.86,15.22s-5.66,15.08-15.86,15.08h-12.03v16.92h-10.05Zm20.74-38.58h-10.69v13.02h10.69c3.96,0,6.94-2.55,6.94-6.51s-2.97-6.51-6.94-6.51Z"/><path class="cls-1" d="m1862.62,296.11l-2.97-8.14h-21.09l-2.97,8.14h-11.04l18.26-47.21h12.6l18.19,47.21h-10.97Zm-13.52-38.51l-7.86,21.66h15.64l-7.79-21.66Z"/><path class="cls-1" d="m1914.51,296.11l-22.51-31.71v31.71h-10.05v-47.21h10.33l21.87,30.58v-30.58h10.05v47.21h-9.7Z"/><path class="cls-1" d="m1950.67,296.11v-19.32l-18.19-27.89h11.47l11.75,18.97,11.61-18.97h11.47l-18.05,27.89v19.32h-10.05Z"/></g></g><g><path class="cls-2" d="m156.81,296.39h-74.96c-21.86,0-41.9-8.75-56.68-23.18h131.65v23.18h0ZM15.28,261.61c-3.97-5.63-7.27-11.81-9.78-18.41h151.31v18.41H15.28Zm-13.24-30.02C.7,225.56,0,219.25,0,212.76h156.81v18.84H2.04Zm-1.27-30.45c1.8-13.85,6.81-28.37,15.77-42.93L114.92,29.26C136.27,6.42,153.36,1.03,170.46,0v96.43l-78.73,104.71H.77Z"/><path class="cls-2" d="m202.45,296.39h74.97c21.87,0,41.91-8.75,56.68-23.18h-131.65v23.18h0Zm141.53-34.78c3.97-5.63,7.27-11.81,9.78-18.41h-151.31v18.41h141.53Zm13.24-30.02c1.34-6.03,2.05-12.34,2.04-18.84h-156.81v18.84h154.78Zm1.27-30.45c-1.8-13.85-6.81-28.37-15.77-42.93L244.35,29.26C223,6.42,205.91,1.03,188.8,0v96.43l78.73,104.71h90.97Z"/></g></g></g></svg>