<?xml version="1.0" encoding="UTF-8"?><svg id="Livello_2" xmlns="http://www.w3.org/2000/svg" viewBox="0 0 706.63 449.26"><defs><style>.cls-1,.cls-2{fill:#8c1e74;}.cls-2{fill-rule:evenodd;}</style></defs><g id="Layer_1"><g><g><rect class="cls-1" y="402.56" width="705.14" height="4.09"/><g><path class="cls-1" d="m7.69,448.85v-17.27H1.48v-3.98h16.96v3.98h-6.18v17.27h-4.56Z"/><path class="cls-1" d="m37.65,448.85v-8.92h-10.04v8.92h-4.53v-21.26h4.53v8.35h10.04v-8.35h4.56v21.26h-4.56Z"/><path class="cls-1" d="m48.14,448.85v-21.26h15.04v3.89h-10.52v4.62h10.29v3.89h-10.29v4.94h10.52v3.92h-15.04Z"/><path class="cls-1" d="m78.38,448.85v-21.26h8.38c6.66,0,11.28,4.24,11.28,10.65s-4.62,10.61-11.28,10.61h-8.38Zm4.53-3.98h3.86c4.21,0,6.66-3.03,6.66-6.63s-2.29-6.66-6.66-6.66h-3.86v13.29Z"/><path class="cls-1" d="m103.01,448.85v-21.26h4.53v21.26h-4.53Z"/><path class="cls-1" d="m123.79,427.24c4.4,0,7.17,2.14,8.8,4.65l-3.76,2.04c-.99-1.5-2.8-2.68-5.04-2.68-3.86,0-6.66,2.96-6.66,6.98s2.8,6.98,6.66,6.98c1.94,0,3.67-.8,4.59-1.63v-2.58h-5.67v-3.89h10.14v8.13c-2.17,2.42-5.2,4.02-9.05,4.02-6.21,0-11.31-4.33-11.31-11.03s5.1-11,11.31-11Z"/><path class="cls-1" d="m138.2,448.85v-21.26h4.53v21.26h-4.53Z"/><path class="cls-1" d="m153.59,448.85v-17.27h-6.21v-3.98h16.96v3.98h-6.18v17.27h-4.56Z"/><path class="cls-1" d="m181.83,448.85l-1.34-3.67h-9.5l-1.34,3.67h-4.97l8.22-21.26h5.67l8.19,21.26h-4.94Zm-6.09-17.34l-3.54,9.75h7.04l-3.51-9.75Z"/><path class="cls-1" d="m190.5,448.85v-21.26h4.53v17.27h8.99v3.98h-13.51Z"/><path class="cls-1" d="m223.74,448.85v-17.27h-6.21v-3.98h16.96v3.98h-6.18v17.27h-4.56Z"/><path class="cls-1" d="m251.14,448.85l-4.18-7.62h-3.31v7.62h-4.53v-21.26h9.94c4.43,0,7.14,2.9,7.14,6.85s-2.36,5.77-4.65,6.31l4.78,8.1h-5.2Zm-2.74-17.37h-4.75v5.86h4.75c1.82,0,3.19-1.15,3.19-2.93s-1.37-2.93-3.19-2.93Z"/><path class="cls-1" d="m276.26,448.85l-1.34-3.67h-9.5l-1.34,3.67h-4.97l8.22-21.26h5.67l8.19,21.26h-4.94Zm-6.09-17.34l-3.54,9.75h7.04l-3.51-9.75Z"/><path class="cls-1" d="m299.59,448.85l-10.13-14.28v14.28h-4.53v-21.26h4.65l9.85,13.77v-13.77h4.53v21.26h-4.37Z"/><path class="cls-1" d="m310.93,442.41c1.5,1.56,3.82,2.87,6.76,2.87,2.49,0,3.7-1.18,3.7-2.39,0-1.59-1.85-2.14-4.3-2.71-3.47-.8-7.94-1.75-7.94-6.5,0-3.54,3.06-6.41,8.06-6.41,3.38,0,6.18,1.02,8.29,2.96l-2.52,3.31c-1.72-1.59-4.02-2.33-6.09-2.33s-3.12.89-3.12,2.17c0,1.43,1.78,1.88,4.24,2.45,3.51.8,7.97,1.85,7.97,6.57,0,3.89-2.77,6.82-8.51,6.82-4.08,0-7.01-1.37-9.02-3.38l2.49-3.44Z"/><path class="cls-1" d="m330.79,448.85v-21.26h15.04v3.89h-10.52v4.62h10.29v3.89h-10.29v8.86h-4.53Z"/><path class="cls-1" d="m360.81,427.24c6.44,0,11.12,4.59,11.12,11s-4.69,11-11.12,11-11.09-4.59-11.09-11,4.69-11,11.09-11Zm0,4.02c-3.92,0-6.44,3-6.44,6.98s2.52,6.98,6.44,6.98,6.47-3.03,6.47-6.98-2.55-6.98-6.47-6.98Z"/><path class="cls-1" d="m388.89,448.85l-4.18-7.62h-3.31v7.62h-4.53v-21.26h9.94c4.43,0,7.14,2.9,7.14,6.85s-2.36,5.77-4.65,6.31l4.78,8.1h-5.19Zm-2.74-17.37h-4.75v5.86h4.75c1.82,0,3.19-1.15,3.19-2.93s-1.37-2.93-3.19-2.93Z"/><path class="cls-1" d="m417.6,448.85v-15.3l-5.99,15.3h-1.98l-5.99-15.3v15.3h-4.53v-21.26h6.34l5.16,13.26,5.16-13.26h6.37v21.26h-4.56Z"/><path class="cls-1" d="m443,448.85l-1.34-3.67h-9.5l-1.34,3.67h-4.97l8.22-21.26h5.67l8.19,21.26h-4.94Zm-6.09-17.34l-3.54,9.75h7.04l-3.51-9.75Z"/><path class="cls-1" d="m454.54,448.85v-17.27h-6.21v-3.98h16.96v3.98h-6.18v17.27h-4.56Z"/><path class="cls-1" d="m469.93,448.85v-21.26h4.53v21.26h-4.53Z"/><path class="cls-1" d="m490.48,427.24c6.44,0,11.12,4.59,11.12,11s-4.69,11-11.12,11-11.09-4.59-11.09-11,4.68-11,11.09-11Zm0,4.02c-3.92,0-6.44,3-6.44,6.98s2.52,6.98,6.44,6.98,6.47-3.03,6.47-6.98-2.55-6.98-6.47-6.98Z"/><path class="cls-1" d="m521.21,448.85l-10.13-14.28v14.28h-4.53v-21.26h4.65l9.85,13.77v-13.77h4.53v21.26h-4.37Z"/><path class="cls-1" d="m540.42,438.23c0-6.53,4.94-11,11.15-11,4.84,0,7.55,2.55,9.05,5.19l-3.89,1.91c-.89-1.72-2.8-3.09-5.16-3.09-3.7,0-6.5,2.96-6.5,6.98s2.8,6.98,6.5,6.98c2.36,0,4.27-1.34,5.16-3.09l3.89,1.88c-1.53,2.65-4.21,5.23-9.05,5.23-6.22,0-11.15-4.46-11.15-11Z"/><path class="cls-1" d="m575.16,427.24c6.44,0,11.12,4.59,11.12,11s-4.69,11-11.12,11-11.09-4.59-11.09-11,4.68-11,11.09-11Zm0,4.02c-3.92,0-6.44,3-6.44,6.98s2.52,6.98,6.44,6.98,6.47-3.03,6.47-6.98-2.55-6.98-6.47-6.98Z"/><path class="cls-1" d="m609.71,448.85v-15.3l-5.99,15.3h-1.98l-5.99-15.3v15.3h-4.53v-21.26h6.34l5.16,13.26,5.16-13.26h6.37v21.26h-4.56Z"/><path class="cls-1" d="m620.23,448.85v-21.26h9.94c4.62,0,7.14,3.12,7.14,6.85s-2.55,6.79-7.14,6.79h-5.42v7.62h-4.53Zm9.34-17.37h-4.81v5.86h4.81c1.78,0,3.12-1.15,3.12-2.93s-1.34-2.93-3.12-2.93Z"/><path class="cls-1" d="m654.39,448.85l-1.34-3.67h-9.5l-1.34,3.67h-4.97l8.22-21.26h5.67l8.19,21.26h-4.94Zm-6.09-17.34l-3.54,9.75h7.04l-3.51-9.75Z"/><path class="cls-1" d="m677.72,448.85l-10.13-14.28v14.28h-4.53v-21.26h4.65l9.85,13.77v-13.77h4.53v21.26h-4.37Z"/><path class="cls-1" d="m693.97,448.85v-8.7l-8.19-12.56h5.16l5.29,8.54,5.23-8.54h5.16l-8.13,12.56v8.7h-4.53Z"/></g><g><path class="cls-1" d="m.98,378.99v-65.49h53.65v15.69H22.53v8.72h27.13v15.02h-27.13v10.14h33.41v15.91H.98Z"/><path class="cls-1" d="m66.02,378.99v-65.49h20.46l18.82,30.45c.58.86,1.19,2.07,1.84,3.65.66,1.57,1.35,3.47,2.09,5.69-.19-1.16-.33-2.43-.42-3.83-.09-1.39-.14-3.08-.14-5.07v-30.9h20.57v65.49h-20.57l-18.82-30.23c-.58-.89-1.21-2.15-1.89-3.78-.68-1.63-1.38-3.5-2.07-5.61.21,1.16.37,2.37.45,3.63.09,1.25.14,3.02.14,5.31v30.67h-20.46Z"/><path class="cls-1" d="m191.96,378.99l-1.05-5.65c-2.43,2.52-5.36,4.39-8.8,5.62-3.44,1.23-7.42,1.85-11.98,1.85-9.6,0-17.17-3.08-22.7-9.23-5.53-6.15-8.3-14.58-8.3-25.28s3.09-19.42,9.26-25.45c6.17-6.03,14.81-9.05,25.94-9.05,8.75,0,15.8,2.12,21.17,6.36,5.36,4.24,8.55,10.21,9.54,17.91h-20.47c-.81-2.6-2.15-4.59-3.99-5.96-1.83-1.37-4.1-2.05-6.81-2.05-4.32,0-7.55,1.62-9.69,4.85-2.15,3.22-3.22,8.04-3.22,14.45,0,5.93,1.08,10.36,3.23,13.29,2.16,2.94,5.45,4.41,9.85,4.41,3.16,0,5.84-.72,8.04-2.16,2.2-1.44,3.56-3.37,4.08-5.8h-9.71v-14h29.49v35.88h-13.9Z"/><path class="cls-1" d="m218.43,378.99v-65.49h21.97v65.49h-21.97Z"/><path class="cls-1" d="m253.53,378.99v-65.49h20.46l18.83,30.45c.57.86,1.19,2.07,1.84,3.65.65,1.57,1.35,3.47,2.07,5.69-.18-1.16-.32-2.43-.41-3.83-.08-1.39-.13-3.08-.13-5.07v-30.9h20.55v65.49h-20.55l-18.82-30.23c-.59-.89-1.21-2.15-1.9-3.78-.68-1.63-1.38-3.5-2.08-5.61.21,1.16.37,2.37.46,3.63.1,1.25.14,3.02.14,5.31v30.67h-20.46Z"/><path class="cls-1" d="m329.5,378.99v-65.49h53.66v15.69h-32.09v8.72h27.13v15.02h-27.13v10.14h33.41v15.91h-54.98Z"/><path class="cls-1" d="m394.54,378.99v-65.49h53.65v15.69h-32.09v8.72h27.13v15.02h-27.13v10.14h33.41v15.91h-54.97Z"/><path class="cls-1" d="m459.59,378.99v-65.49h32.13c10.05,0,17.23,1.47,21.53,4.4,4.3,2.94,6.45,7.75,6.45,14.45,0,4-.88,7.32-2.64,9.96-1.76,2.64-4.48,4.72-8.16,6.27,3.74.77,6.46,2.3,8.16,4.56,1.7,2.27,2.61,5.6,2.73,9.98l.36,9.12c0,.05.02.13.05.22.1,2.6.73,3.97,1.92,4.09v2.45h-21.75c-.39-1.57-.68-2.94-.88-4.11-.2-1.17-.3-2.08-.3-2.73v-6.54c0-3.38-.68-5.76-2.05-7.14-1.37-1.37-3.74-2.06-7.1-2.06h-9.17v22.58h-21.28Zm21.28-37.35h9.8c3.44,0,5.8-.45,7.11-1.36,1.31-.91,1.96-2.48,1.96-4.73s-.65-3.92-1.96-4.83c-1.31-.9-3.86-1.35-7.66-1.35h-9.26v12.27Z"/><path class="cls-1" d="m531.19,378.99v-65.49h21.96v65.49h-21.96Z"/><path class="cls-1" d="m566.28,378.99v-65.49h20.47l18.83,30.45c.58.86,1.19,2.07,1.85,3.65.65,1.57,1.34,3.47,2.07,5.69-.18-1.16-.31-2.43-.41-3.83-.09-1.39-.13-3.08-.13-5.07v-30.9h20.54v65.49h-20.54l-18.83-30.23c-.58-.89-1.22-2.15-1.9-3.78-.68-1.63-1.37-3.5-2.07-5.61.21,1.16.36,2.37.46,3.63.09,1.25.13,3.02.13,5.31v30.67h-20.47Z"/><path class="cls-1" d="m692.21,378.99l-1.04-5.65c-2.44,2.52-5.37,4.39-8.81,5.62-3.43,1.23-7.42,1.85-11.98,1.85-9.61,0-17.16-3.08-22.7-9.23-5.54-6.15-8.3-14.58-8.3-25.28s3.09-19.42,9.25-25.45c6.17-6.03,14.81-9.05,25.94-9.05,8.74,0,15.8,2.12,21.17,6.36,5.36,4.24,8.55,10.21,9.55,17.91h-20.47c-.82-2.6-2.15-4.59-3.99-5.96-1.83-1.37-4.11-2.05-6.81-2.05-4.31,0-7.54,1.62-9.69,4.85-2.14,3.22-3.21,8.04-3.21,14.45,0,5.93,1.07,10.36,3.23,13.29,2.16,2.94,5.45,4.41,9.84,4.41,3.16,0,5.84-.72,8.04-2.16,2.21-1.44,3.57-3.37,4.09-5.8h-9.7v-14h29.48v35.88h-13.9Z"/></g></g><g><path class="cls-2" d="m332.98,267.17h-67.57c-19.71,0-37.77-7.89-51.09-20.89h118.67v20.89h0Zm-127.58-31.35c-3.58-5.08-6.56-10.64-8.81-16.6h136.39v16.6h-127.58Zm-11.94-27.06c-1.21-5.43-1.85-11.12-1.84-16.98h141.35v16.98h-139.51Zm-1.15-27.45c1.62-12.49,6.14-25.57,14.21-38.7l88.68-116.23C314.46,5.79,329.86.93,345.28,0v86.92l-70.97,94.39h-82Z"/><path class="cls-2" d="m374.12,267.17h67.58c19.71,0,37.77-7.89,51.09-20.89h-118.67v20.89h0Zm127.58-31.35c3.58-5.08,6.55-10.64,8.81-16.6h-136.39v16.6h127.58Zm11.94-27.06c1.21-5.43,1.84-11.12,1.83-16.98h-141.35v16.98h139.52Zm1.14-27.45c-1.62-12.49-6.14-25.57-14.21-38.7l-88.68-116.23C392.64,5.79,377.24.93,361.81,0v86.92l70.97,94.39h82Z"/></g></g></g></svg>